<svg height="200" viewBox="0 0 800 800" width="200" xmlns="http://www.w3.org/2000/svg"><path d="m0 0h800v800h-800z"/><g fill="none" stroke="#282828"><path d="m769 229 268 31.9m-110 619.1-196-143-211-77-211-122-269 61 255 165-168.5 115.5-86.5-280.5-237-106 299-111-133-153 157.5-149.5-195.5-142.5"/><path d="m-31 229 268 32 153 121 213 111-294.5 44.5-207-156m268.5 523.5-75-141"/><path d="m520 660 58 182 153-105 109-138-237-106-83 167-225 104 14-226 81-156 149-113 230-40-191.5-187.5-207.5 63.5-75-141-168.5 115.5 110.5 181.5-135 121-62 217-109 138 196 143"/><path d="m520-140 58.5 182.5 152.5-105.5m-128 556-64-224-302-8 133-156m532 277-363-113m-149 113h-288"/><path d="m-222 42 348.5 37.5 243.5 25.5 169 164 38.5-227.5 349.5 38.5-158 149 133 153-299 111 128 244m-436-773 282.5 77.5m.5 800.5-283-78m-255-965 87 281m-25 302-363-113"/></g><g fill="#323232"><circle cx="769" cy="229" r="5"/><circle cx="539" cy="269" r="5"/><circle cx="603" cy="493" r="5"/><circle cx="731" cy="737" r="5"/><circle cx="520" cy="660" r="5"/><circle cx="309" cy="538" r="5"/><circle cx="295" cy="764" r="5"/><circle cx="40" cy="599" r="5"/><circle cx="102" cy="382" r="5"/><circle cx="127" cy="80" r="5"/><circle cx="370" cy="105" r="5"/><circle cx="578" cy="42" r="5"/><circle cx="237" cy="261" r="5"/><circle cx="390" cy="382" r="5"/></g></svg>