<?xml version="1.0" ?><svg height="210mm" id="svg6336" version="1.1" viewBox="0 0 210 210" width="210mm" xmlns="http://www.w3.org/2000/svg" xmlns:cc="http://creativecommons.org/ns#" xmlns:dc="http://purl.org/dc/elements/1.1/" xmlns:rdf="http://www.w3.org/1999/02/22-rdf-syntax-ns#" xmlns:svg="http://www.w3.org/2000/svg"><defs id="defs6330"/><path d="M 66.886719 22.435547 C 43.330805 22.435547 24.367188 41.399168 24.367188 64.955078 L 24.367188 727.4668 C 24.367188 751.0227 43.330805 769.98633 66.886719 769.98633 L 400.4082 769.98633 L 729.39844 769.98633 C 752.95434 769.98633 771.91797 751.0227 771.91797 727.4668 L 771.91797 64.955078 C 771.91797 41.399168 752.95434 22.435547 729.39844 22.435547 L 400.4082 22.435547 L 66.886719 22.435547 z " id="rect6883" style="opacity:1;fill:#00247d;fill-opacity:1;fill-rule:nonzero;stroke:none;stroke-width:1.00157475;stroke-linecap:round;stroke-linejoin:round;stroke-miterlimit:4;stroke-dasharray:none;stroke-dashoffset:0;stroke-opacity:1" transform="scale(0.26458333)"/><path d="M 24.367188 147.87305 L 24.367188 212.94727 L 341.78711 396.21094 L 24.367188 579.47461 L 24.367188 644.54688 L 398.14258 428.74609 L 771.91797 644.54688 L 771.91797 579.47461 L 454.49805 396.21094 L 771.91797 212.94727 L 771.91797 147.87305 L 398.14258 363.67383 L 24.367188 147.87305 z " id="path4589" style="opacity:1;fill:#cf142b;fill-opacity:1;fill-rule:nonzero;stroke:none;stroke-width:25;stroke-linecap:butt;stroke-linejoin:miter;stroke-miterlimit:4;stroke-dasharray:none;stroke-dashoffset:0;stroke-opacity:1;paint-order:markers fill stroke" transform="scale(0.26458333)"/><path d="M 333.85938 22.435547 L 333.85938 331.92773 L 24.367188 331.92773 L 24.367188 460.49219 L 333.85938 460.49219 L 333.85938 769.98633 L 400.4082 769.98633 L 462.42578 769.98633 L 462.42578 460.49219 L 771.91797 460.49219 L 771.91797 331.92773 L 462.42578 331.92773 L 462.42578 22.435547 L 400.4082 22.435547 L 333.85938 22.435547 z " id="path4587" style="opacity:1;fill:#cf142b;fill-opacity:1;fill-rule:nonzero;stroke:none;stroke-width:25;stroke-linecap:butt;stroke-linejoin:miter;stroke-miterlimit:4;stroke-dasharray:none;stroke-dashoffset:0;stroke-opacity:1;paint-order:markers fill stroke" transform="scale(0.26458333)"/><path d="M 321.35938,22.435547 V 304.91016 L 24.367188,133.43945 v 28.86914 L 296.50586,319.42773 H 233.79883 L 24.367188,198.51172 v 28.87109 L 183.79492,319.42773 H 24.367188 v 25 h 202.730472 50.00195 25.99805 c 17.01867,0 27.44337,-0.71009 43.26172,-0.71009 V 319.34375 22.435547 Z m 128.5664,0 v 296.908203 25.19049 c 15.25639,0 29.48278,-0.10651 43.26172,-0.10651 h 25.99805 50.00195 202.73047 v -25 H 612.49023 L 771.91797,227.38281 V 198.51172 L 562.48633,319.42773 H 499.7793 L 771.91797,162.30859 V 133.43945 L 474.92578,304.91016 V 22.435547 Z M 346.35938,448.29398 c -14.41199,0 -29.48577,-0.30179 -43.26563,-0.30179 H 277.09766 227.09375 24.367188 v 25 H 183.79297 L 24.367188,565.03711 V 593.9082 L 233.79688,472.99219 h 62.70898 L 24.367188,630.11133 v 28.86914 L 321.35938,487.50977 v 282.47656 h 25 V 473.07617 Z m 103.5664,0 v 24.78219 296.91016 h 25 V 487.50977 l 296.99219,171.4707 V 630.11133 L 499.7793,472.99219 h 62.70898 L 771.91797,593.9082 V 565.03711 L 612.49219,472.99219 h 159.42578 v -25 H 569.19141 519.1875 493.19141 c -15.80795,0 -43.26563,0.30179 -43.26563,0.30179 z" id="rect4572" style="color:#000000;font-style:normal;font-variant:normal;font-weight:normal;font-stretch:normal;font-size:medium;line-height:normal;font-family:sans-serif;font-variant-ligatures:normal;font-variant-position:normal;font-variant-caps:normal;font-variant-numeric:normal;font-variant-alternates:normal;font-feature-settings:normal;text-indent:0;text-align:start;text-decoration:none;text-decoration-line:none;text-decoration-style:solid;text-decoration-color:#000000;letter-spacing:normal;word-spacing:normal;text-transform:none;writing-mode:lr-tb;direction:ltr;text-orientation:mixed;dominant-baseline:auto;baseline-shift:baseline;text-anchor:start;white-space:normal;shape-padding:0;clip-rule:nonzero;display:inline;overflow:visible;visibility:visible;opacity:1;isolation:auto;mix-blend-mode:normal;color-interpolation:sRGB;color-interpolation-filters:linearRGB;solid-color:#000000;solid-opacity:1;vector-effect:none;fill:#ffffff;fill-opacity:1;fill-rule:nonzero;stroke:none;stroke-width:25;stroke-linecap:butt;stroke-linejoin:miter;stroke-miterlimit:4;stroke-dasharray:none;stroke-dashoffset:0;stroke-opacity:1;paint-order:markers fill stroke;color-rendering:auto;image-rendering:auto;shape-rendering:auto;text-rendering:auto;enable-background:accumulate" transform="scale(0.26458333)"/></svg>